<?xml version="1.0" encoding="UTF-8" standalone="no"?>
<!DOCTYPE svg PUBLIC "-//W3C//DTD SVG 1.1//EN" "http://www.w3.org/Graphics/SVG/1.1/DTD/svg11.dtd">
<svg version="1.1" xmlns="http://www.w3.org/2000/svg" xmlns:xlink="http://www.w3.org/1999/xlink" preserveAspectRatio="xMidYMid meet" viewBox="0 0 512 512" width="512" height="512"><defs><path d="M24 0L24 24L0 24L0 0L24 0ZM24 0L24 24L0 24L0 0L24 0Z" id="cdY9B7rXs"></path><path d="M374.05 144.29L206 312.33L114.46 221.04L78.5 257L206 384.5L410 180.5L374.05 144.29ZM2 257C2 397.76 116.24 512 257 512C397.76 512 512 397.76 512 257C512 116.24 397.76 2 257 2C116.24 2 2 116.24 2 257ZM53 257C53 144.29 144.29 53 257 53C369.71 53 461 144.29 461 257C461 369.71 369.71 461 257 461C144.29 461 53 369.71 53 257Z" id="a1FUQMs8PE"></path></defs><g><g><g><use xlink:href="#cdY9B7rXs" opacity="1" fill="#000000" fill-opacity="0"></use><g><use xlink:href="#cdY9B7rXs" opacity="1" fill-opacity="0" stroke="#000000" stroke-width="1" stroke-opacity="0"></use></g></g><g><use xlink:href="#a1FUQMs8PE" opacity="1" fill="#000000" fill-opacity="1"></use><g><use xlink:href="#a1FUQMs8PE" opacity="1" fill-opacity="0" stroke="#000000" stroke-width="1" stroke-opacity="0"></use></g></g></g></g></svg>